# xmcd
#
# Track frame offsets: 
#        150
#        17715
#        34487
#        50812
#        65282
#        81602
#        99372
#        114857
#        127677
#        143332
#        159842
#        175255
#
# Disc length: 2633 seconds
#
# Revision: 79
# Processed by: cddbd v1.5.2PL0 Copyright (c) Steve Scherf et al.
# Submitted via: ExactAudioCopy v1.3
#
DISCID=920a470c
DTITLE=Dixie Chicks - Wide Open Spaces
DYEAR=1998
DGENRE=Folk/Country
TTITLE0=I Can Love You Better
TTITLE1=Wide Open Spaces
TTITLE2=Loving Arms
TTITLE3=There's Your Trouble
TTITLE4=You Were Mine
TTITLE5=Never Say Die
TTITLE6=Tonight The Heartache's on Me
TTITLE7=Let 'Er Rip
TTITLE8=Once You've Loved Somebody
TTITLE9=I'll Take Care of You
TTITLE10=Am I the Only One (Who's Ever Felt This Way)
TTITLE11=Give It Up or Let Me Go
EXTD=
EXTT0=
EXTT1=
EXTT2=
EXTT3=
EXTT4=
EXTT5=
EXTT6=
EXTT7=
EXTT8=
EXTT9=
EXTT10=
EXTT11=
PLAYORDER=
